<?xml version="1.0" encoding="UTF-8" standalone="no"?>
<svg
   version="1.1"
   width="841.88977"
   height="595.27557"
   id="svg23"
   viewBox="0 0 841.88977 595.27557"
   sodipodi:docname="365b789a7796a4668858697f0166a345.cdr"
   xmlns:inkscape="http://www.inkscape.org/namespaces/inkscape"
   xmlns:sodipodi="http://sodipodi.sourceforge.net/DTD/sodipodi-0.dtd"
   xmlns="http://www.w3.org/2000/svg"
   xmlns:svg="http://www.w3.org/2000/svg">
  <defs
     id="defs27" />
  <sodipodi:namedview
     id="namedview25"
     pagecolor="#ffffff"
     bordercolor="#666666"
     borderopacity="1.0"
     inkscape:pageshadow="2"
     inkscape:pageopacity="0.0"
     inkscape:pagecheckerboard="0" />
  <path
     d="M 0,0 V 595.2756 H 841.8898 V 0 Z"
     style="fill:#163d3c;fill-rule:evenodd"
     id="path2" />
  <path
     d="m 314.4921,394.6861 c -0.0489,-0.0992 -0.0971,-0.1948 -0.1384,-0.28 -0.8092,-1.6778 -1.4088,-3.2057 -1.4088,-5.1117 0,-0.2157 0.008,-0.4315 0.0243,-0.6467 0.1246,-1.6576 0.6767,-2.9976 1.3847,-4.465 0.0411,-0.0851 0.0893,-0.1807 0.1382,-0.2797 -0.0489,-0.0993 -0.0973,-0.1951 -0.1384,-0.2802 -0.8095,-1.6778 -1.4088,-3.2058 -1.4088,-5.1115 0,-0.2157 0.008,-0.4315 0.0243,-0.6467 0.1246,-1.6577 0.6767,-2.9976 1.3847,-4.465 0.0411,-0.0852 0.0893,-0.1807 0.1382,-0.2797 -0.0487,-0.099 -0.0971,-0.1944 -0.1379,-0.2795 -0.8095,-1.6781 -1.4093,-3.206 -1.4093,-5.1122 0,-0.2158 0.008,-0.4315 0.0243,-0.6468 0.1246,-1.6576 0.6767,-2.9975 1.3847,-4.4649 0.0411,-0.0852 0.0893,-0.1808 0.1382,-0.2798 -0.0489,-0.0992 -0.0971,-0.1948 -0.1384,-0.2799 -0.8092,-1.6778 -1.4088,-3.2058 -1.4088,-5.1117 0,-0.2158 0.008,-0.4315 0.0243,-0.6468 0.1246,-1.6576 0.6767,-2.9976 1.3847,-4.465 0.0411,-0.0851 0.0893,-0.1807 0.1382,-0.2797 -0.0489,-0.0992 -0.0973,-0.195 -0.1384,-0.2802 -0.8095,-1.6778 -1.4088,-3.2058 -1.4088,-5.1115 0,-0.2157 0.008,-0.4314 0.0243,-0.6467 0.1246,-1.6576 0.6767,-2.9976 1.3847,-4.465 0.0411,-0.0851 0.0893,-0.1807 0.1382,-0.2797 -0.0487,-0.099 -0.0971,-0.1943 -0.1379,-0.2795 -0.8095,-1.678 -1.4093,-3.206 -1.4093,-5.1122 0,-0.2157 0.008,-0.4315 0.0243,-0.6467 0.1246,-1.6579 0.6769,-2.9978 1.385,-4.4655 0.0408,-0.0851 0.0892,-0.1805 0.1379,-0.2795 -0.0489,-0.099 -0.0971,-0.1945 -0.1382,-0.2797 -0.8094,-1.6778 -1.409,-3.2057 -1.409,-5.1117 0,-0.2157 0.008,-0.4315 0.0243,-0.6467 0.1246,-1.6577 0.6767,-2.9976 1.3847,-4.465 0.0411,-0.0852 0.0893,-0.1807 0.1382,-0.2797 -0.0487,-0.099 -0.0971,-0.1944 -0.1379,-0.2795 -0.8095,-1.6781 -1.4093,-3.206 -1.4093,-5.1122 0,-0.2158 0.008,-0.4315 0.0243,-0.6468 0.1246,-1.6576 0.6767,-2.9975 1.3847,-4.4649 0.0411,-0.0852 0.0893,-0.1808 0.1382,-0.2798 -0.0487,-0.099 -0.0971,-0.1943 -0.1379,-0.2794 -0.8095,-1.6781 -1.4093,-3.206 -1.4093,-5.1122 0,-0.2158 0.008,-0.4315 0.0243,-0.6468 0.1246,-1.6578 0.6769,-2.9978 1.385,-4.4654 0.0408,-0.0852 0.0892,-0.1805 0.1379,-0.2795 -0.0489,-0.099 -0.0971,-0.1946 -0.1382,-0.2797 -0.8094,-1.6778 -1.409,-3.2058 -1.409,-5.1118 0,-0.2157 0.008,-0.4314 0.0243,-0.6467 0.1246,-1.6576 0.6767,-2.9976 1.3847,-4.465 0.0411,-0.0851 0.0893,-0.1807 0.1382,-0.2797 -0.0487,-0.099 -0.0971,-0.1943 -0.1379,-0.2795 -0.8095,-1.678 -1.4093,-3.206 -1.4093,-5.1122 0,-0.2157 0.008,-0.4315 0.0243,-0.6467 0.1246,-1.6579 0.6769,-2.9978 1.385,-4.4655 0.0408,-0.0851 0.0892,-0.1805 0.1379,-0.2795 -0.0489,-0.099 -0.0971,-0.1945 -0.1382,-0.2797 -0.8094,-1.6778 -1.409,-3.2057 -1.409,-5.1117 0,-0.2167 0.008,-0.4332 0.0246,-0.6492 0.1247,-1.6566 0.6769,-2.9961 1.3844,-4.4625 0.0411,-0.0854 0.0893,-0.1807 0.1382,-0.28 -0.0489,-0.099 -0.0971,-0.1946 -0.1382,-0.2797 -0.8094,-1.6778 -1.409,-3.2058 -1.409,-5.1117 0,-0.2155 0.008,-0.4308 0.0243,-0.6455 0.1243,-1.6581 0.6764,-2.9983 1.3845,-4.4662 0.0413,-0.0852 0.0895,-0.1808 0.1384,-0.28 -0.0489,-0.099 -0.0971,-0.1946 -0.1382,-0.2797 -0.8094,-1.6778 -1.409,-3.2058 -1.409,-5.1117 0,-0.2158 0.008,-0.4315 0.0243,-0.6468 0.1246,-1.6578 0.6769,-2.9978 1.385,-4.4654 0.0408,-0.0852 0.0892,-0.1805 0.1379,-0.2795 -0.0489,-0.099 -0.0971,-0.1946 -0.1382,-0.2797 -0.8094,-1.6778 -1.409,-3.2058 -1.409,-5.1118 0,-0.2162 0.008,-0.4324 0.0246,-0.6482 0.1245,-1.6566 0.6766,-2.9963 1.3842,-4.4632 0.0411,-0.0852 0.0895,-0.181 0.1384,-0.2802 -0.0489,-0.099 -0.0971,-0.1946 -0.1382,-0.2797 -0.8094,-1.6779 -1.409,-3.2058 -1.409,-5.1118 0,-0.2155 0.008,-0.4307 0.0243,-0.6455 0.1243,-1.6581 0.6764,-2.9983 1.3845,-4.4662 0.0413,-0.0851 0.0895,-0.1807 0.1384,-0.28 -0.0489,-0.0989 -0.0971,-0.1945 -0.1382,-0.2797 -0.8094,-1.6778 -1.409,-3.2057 -1.409,-5.1117 0,-0.2162 0.008,-0.4325 0.0246,-0.6482 0.1245,-1.6566 0.6766,-2.9964 1.3842,-4.4633 0.0411,-0.0851 0.0895,-0.1809 0.1384,-0.2802 -0.0489,-0.099 -0.0971,-0.1946 -0.1382,-0.2797 -0.8094,-1.6778 -1.409,-3.2058 -1.409,-5.1117 0,-0.2162 0.008,-0.4325 0.0246,-0.6482 0.1245,-1.6567 0.6766,-2.9964 1.3842,-4.4633 0.0411,-0.0851 0.0895,-0.181 0.1384,-0.2802 -0.0489,-0.0992 -0.0973,-0.1951 -0.1384,-0.2802 -0.8095,-1.6778 -1.4088,-3.2058 -1.4088,-5.1115 v -5.5602 h 5.5602 c 0.2163,0 0.4325,0.008 0.6482,0.0246 1.6567,0.1245 2.9964,0.6766 4.4633,1.3842 0.0851,0.0411 0.181,0.0895 0.2802,0.1384 0.0993,-0.0489 0.1951,-0.0973 0.2802,-0.1384 1.6778,-0.8095 3.2058,-1.4088 5.1115,-1.4088 0.2157,0 0.4315,0.008 0.6468,0.0243 1.6576,0.1245 2.9975,0.6767 4.4649,1.3847 0.0852,0.0411 0.1807,0.0893 0.2797,0.1382 0.0993,-0.0489 0.1951,-0.0973 0.2802,-0.1384 1.6778,-0.8095 3.2058,-1.4088 5.1115,-1.4088 0.2158,0 0.4315,0.008 0.6468,0.0243 1.6576,0.1245 2.9975,0.6767 4.4649,1.3847 0.0852,0.0411 0.1808,0.0893 0.2798,0.1382 0.0992,-0.0489 0.1948,-0.0971 0.2799,-0.1384 1.6778,-0.8093 3.2058,-1.4088 5.1117,-1.4088 0.2158,0 0.4315,0.008 0.6468,0.0243 1.6576,0.1245 2.9976,0.6767 4.465,1.3847 0.0851,0.0411 0.1807,0.0893 0.2797,0.1382 0.0992,-0.0489 0.195,-0.0973 0.2802,-0.1384 1.6778,-0.8095 3.2058,-1.4088 5.1115,-1.4088 0.2157,0 0.4314,0.008 0.6467,0.0243 1.6576,0.1245 2.9976,0.6767 4.465,1.3847 0.0851,0.0411 0.1807,0.0893 0.2797,0.1382 0.099,-0.0487 0.1943,-0.0971 0.2795,-0.1379 1.678,-0.8095 3.206,-1.4093 5.1122,-1.4093 0.2157,0 0.4315,0.008 0.6467,0.0243 1.6576,0.1245 2.9976,0.6767 4.465,1.3847 0.0851,0.0411 0.1807,0.0893 0.2797,0.1382 0.0993,-0.0489 0.1948,-0.0971 0.28,-0.1384 1.6778,-0.8093 3.2057,-1.4088 5.1117,-1.4088 0.2157,0 0.4315,0.008 0.6467,0.0243 1.6577,0.1245 2.9976,0.6767 4.465,1.3847 0.0852,0.0411 0.1807,0.0893 0.2797,0.1382 0.0993,-0.0489 0.1951,-0.0973 0.2802,-0.1384 1.6778,-0.8095 3.2058,-1.4088 5.1115,-1.4088 0.2158,0 0.4315,0.008 0.6468,0.0243 1.6576,0.1245 2.9975,0.6767 4.4649,1.3847 0.0852,0.0411 0.1808,0.0893 0.2798,0.1382 0.099,-0.0487 0.1943,-0.0971 0.2794,-0.1379 1.6781,-0.8095 3.206,-1.4093 5.1122,-1.4093 0.2158,0 0.4315,0.008 0.6468,0.0243 1.6578,0.1245 2.9978,0.6769 4.4654,1.385 0.0852,0.0408 0.1805,0.0892 0.2795,0.1379 0.099,-0.0489 0.1946,-0.0971 0.2797,-0.1382 1.6778,-0.8095 3.2058,-1.409 5.1118,-1.409 0.2157,0 0.4314,0.008 0.6467,0.0243 1.6576,0.1245 2.9976,0.6767 4.465,1.3847 0.0851,0.0411 0.1807,0.0893 0.2797,0.1382 0.099,-0.0487 0.1943,-0.0971 0.2795,-0.1379 1.678,-0.8095 3.206,-1.4093 5.1122,-1.4093 0.2157,0 0.4315,0.008 0.6467,0.0243 1.6576,0.1245 2.9976,0.6767 4.465,1.3847 0.0851,0.0411 0.1807,0.0893 0.2797,0.1382 0.099,-0.0487 0.1944,-0.0971 0.2795,-0.1379 1.678,-0.8095 3.206,-1.4093 5.1122,-1.4093 0.2157,0 0.4315,0.008 0.6467,0.0243 1.6579,0.1245 2.9979,0.6769 4.4655,1.385 0.0851,0.0408 0.1805,0.0892 0.2795,0.1379 0.099,-0.0489 0.1946,-0.0971 0.2797,-0.1382 1.6778,-0.8095 3.2058,-1.409 5.1117,-1.409 0.2158,0 0.4315,0.008 0.6468,0.0243 1.6576,0.1245 2.9975,0.6767 4.4649,1.3847 0.0852,0.0411 0.1808,0.0893 0.2798,0.1382 0.0989,-0.0487 0.1943,-0.0971 0.2794,-0.1379 1.6781,-0.8095 3.206,-1.4093 5.1122,-1.4093 0.2158,0 0.4315,0.008 0.6468,0.0243 1.6578,0.1245 2.9978,0.6769 4.4654,1.385 0.0852,0.0408 0.1805,0.0892 0.2795,0.1379 0.099,-0.0489 0.1946,-0.0971 0.2797,-0.1382 1.6778,-0.8095 3.2058,-1.409 5.1118,-1.409 0.2167,0 0.4331,0.008 0.6491,0.0246 1.6567,0.1247 2.9961,0.6769 4.4626,1.3844 0.0854,0.0411 0.1807,0.0893 0.2799,0.1382 0.099,-0.0489 0.1946,-0.0971 0.2798,-0.1382 1.6778,-0.8095 3.2057,-1.409 5.1117,-1.409 0.2155,0 0.4307,0.008 0.6455,0.0243 1.6581,0.1243 2.9983,0.6764 4.4662,1.3845 0.0851,0.0413 0.1807,0.0895 0.28,0.1384 0.099,-0.0489 0.1945,-0.0971 0.2797,-0.1382 1.6778,-0.8095 3.2057,-1.409 5.1117,-1.409 0.2157,0 0.4315,0.008 0.6467,0.0243 1.6579,0.1245 2.9979,0.6769 4.4655,1.385 0.0851,0.0408 0.1805,0.0892 0.2795,0.1379 0.099,-0.0489 0.1946,-0.0971 0.2797,-0.1382 1.6778,-0.8095 3.2058,-1.409 5.1117,-1.409 0.2162,0 0.4325,0.008 0.6482,0.0246 1.6567,0.1245 2.9964,0.6766 4.4633,1.3842 0.0851,0.0411 0.181,0.0895 0.2802,0.1384 0.099,-0.0489 0.1946,-0.0971 0.2797,-0.1382 1.6778,-0.8095 3.2058,-1.409 5.1117,-1.409 0.2155,0 0.4308,0.008 0.6456,0.0243 1.6581,0.1243 2.9983,0.6764 4.4662,1.3845 0.0851,0.0413 0.1807,0.0895 0.2799,0.1384 0.099,-0.0489 0.1946,-0.0971 0.2797,-0.1382 1.6778,-0.8095 3.2058,-1.409 5.1118,-1.409 h 5.5602 v 5.5602 c 0,0.2158 -0.008,0.4315 -0.0243,0.6468 -0.1246,1.6576 -0.6767,2.9975 -1.3847,4.4649 -0.0411,0.0852 -0.0893,0.1808 -0.1382,0.2798 0.0489,0.0992 0.0971,0.1948 0.1384,0.2799 0.8092,1.6778 1.4088,3.2058 1.4088,5.1117 0,0.2158 -0.008,0.4315 -0.0243,0.6468 -0.1246,1.6576 -0.6767,2.9976 -1.3847,4.465 -0.0411,0.0851 -0.0893,0.1807 -0.1382,0.2797 0.0489,0.0992 0.0973,0.1951 0.1384,0.2802 0.8095,1.6778 1.4088,3.2058 1.4088,5.1115 0,0.2157 -0.008,0.4315 -0.0243,0.6467 -0.1246,1.6576 -0.6767,2.9976 -1.3847,4.465 -0.0411,0.0851 -0.0893,0.1807 -0.1382,0.2797 0.0487,0.099 0.0971,0.1943 0.1379,0.2795 0.8095,1.678 1.4093,3.206 1.4093,5.1122 0,0.2157 -0.008,0.4315 -0.0243,0.6467 -0.1246,1.6576 -0.6767,2.9976 -1.3847,4.465 -0.0411,0.0851 -0.0893,0.1807 -0.1382,0.2797 0.0489,0.0993 0.0971,0.1948 0.1384,0.28 0.8092,1.6778 1.4088,3.2058 1.4088,5.1117 0,0.2157 -0.008,0.4315 -0.0243,0.6468 -0.1246,1.6576 -0.6767,2.9975 -1.3847,4.4649 -0.0411,0.0852 -0.0893,0.1807 -0.1382,0.2797 0.0489,0.0993 0.0973,0.1951 0.1384,0.2802 0.8095,1.6778 1.4088,3.2058 1.4088,5.1115 0,0.2158 -0.008,0.4315 -0.0243,0.6468 -0.1246,1.6576 -0.6767,2.9975 -1.3847,4.4649 -0.0411,0.0852 -0.0893,0.1808 -0.1382,0.2798 0.0487,0.099 0.0971,0.1943 0.1379,0.2794 0.8095,1.6781 1.4093,3.206 1.4093,5.1122 0,0.2158 -0.008,0.4315 -0.0243,0.6468 -0.1246,1.6578 -0.6769,2.9978 -1.385,4.4655 -0.0408,0.0851 -0.0892,0.1804 -0.1379,0.2794 0.0489,0.099 0.0971,0.1946 0.1382,0.2797 0.8094,1.6778 1.409,3.2058 1.409,5.1118 0,0.2157 -0.008,0.4315 -0.0243,0.6467 -0.1246,1.6576 -0.6767,2.9976 -1.3847,4.465 -0.0411,0.0851 -0.0893,0.1807 -0.1382,0.2797 0.0487,0.099 0.0971,0.1943 0.1379,0.2795 0.8095,1.678 1.4093,3.206 1.4093,5.1122 0,0.2157 -0.008,0.4315 -0.0243,0.6467 -0.1246,1.6576 -0.6767,2.9976 -1.3847,4.465 -0.0411,0.0851 -0.0893,0.1807 -0.1382,0.2797 0.0487,0.099 0.0971,0.1944 0.1379,0.2795 0.8095,1.678 1.4093,3.206 1.4093,5.1122 0,0.2157 -0.008,0.4315 -0.0243,0.6467 -0.1246,1.6579 -0.6769,2.9979 -1.385,4.4655 -0.0408,0.0851 -0.0892,0.1805 -0.1379,0.2795 0.0489,0.099 0.0971,0.1946 0.1382,0.2797 0.8094,1.6778 1.409,3.2058 1.409,5.1117 0,0.2158 -0.008,0.4315 -0.0243,0.6468 -0.1246,1.6576 -0.6767,2.9975 -1.3847,4.4649 -0.0411,0.0852 -0.0893,0.1808 -0.1382,0.2798 0.0487,0.099 0.0971,0.1943 0.1379,0.2794 0.8095,1.6781 1.4093,3.206 1.4093,5.1122 0,0.2158 -0.008,0.4315 -0.0243,0.6468 -0.1246,1.6578 -0.6769,2.9978 -1.385,4.4654 -0.0408,0.0852 -0.0892,0.1805 -0.1379,0.2795 0.0489,0.099 0.0971,0.1946 0.1382,0.2797 0.8094,1.6778 1.409,3.2058 1.409,5.1118 0,0.2167 -0.008,0.4332 -0.0246,0.6491 -0.1248,1.6567 -0.6769,2.9961 -1.3844,4.4626 -0.0411,0.0854 -0.0893,0.1807 -0.1382,0.2799 0.0489,0.099 0.0971,0.1946 0.1382,0.2798 0.8094,1.6778 1.409,3.2057 1.409,5.1117 0,0.2155 -0.008,0.4307 -0.0243,0.6455 -0.1243,1.6581 -0.6765,2.9983 -1.3845,4.4662 -0.0413,0.0851 -0.0895,0.1807 -0.1384,0.28 0.0489,0.099 0.0971,0.1945 0.1382,0.2797 0.8094,1.6778 1.409,3.2057 1.409,5.1117 0,0.2157 -0.008,0.4315 -0.0243,0.6467 -0.1246,1.6579 -0.6769,2.9979 -1.385,4.4655 -0.0408,0.0851 -0.0892,0.1805 -0.1379,0.2795 0.0489,0.099 0.0971,0.1946 0.1382,0.2797 0.8094,1.6778 1.409,3.2058 1.409,5.1117 0,0.2162 -0.008,0.4325 -0.0246,0.6482 -0.1245,1.6567 -0.6766,2.9964 -1.3842,4.4633 -0.0411,0.0851 -0.0895,0.181 -0.1384,0.2802 0.0489,0.099 0.0971,0.1946 0.1382,0.2797 0.8094,1.6778 1.409,3.2058 1.409,5.1117 0,0.2155 -0.008,0.4308 -0.0243,0.6456 -0.1243,1.6581 -0.6765,2.9983 -1.3845,4.4662 -0.0413,0.0851 -0.0895,0.1807 -0.1384,0.2799 0.0489,0.099 0.0971,0.1946 0.1382,0.2797 0.8094,1.6778 1.409,3.2058 1.409,5.1118 0,0.2162 -0.008,0.4324 -0.0246,0.6482 -0.1245,1.6566 -0.6766,2.9963 -1.3842,4.4632 -0.0411,0.0852 -0.0895,0.181 -0.1384,0.2802 0.0489,0.099 0.0971,0.1946 0.1382,0.2798 0.8094,1.6778 1.409,3.2057 1.409,5.1117 0,0.2162 -0.008,0.4324 -0.0246,0.6482 -0.1245,1.6566 -0.6766,2.9963 -1.3842,4.4633 -0.0411,0.0851 -0.0895,0.1809 -0.1384,0.2802 0.0489,0.0992 0.0973,0.195 0.1384,0.2802 0.8095,1.6778 1.4088,3.2057 1.4088,5.1114 v 5.5603 h -5.5602 c -0.2163,0 -0.4325,-0.008 -0.6483,-0.0246 -1.6566,-0.1245 -2.9963,-0.6767 -4.4632,-1.3842 -0.0852,-0.0411 -0.181,-0.0895 -0.2802,-0.1384 -0.0993,0.0489 -0.1951,0.0973 -0.2802,0.1384 -1.6778,0.8095 -3.2058,1.4088 -5.1115,1.4088 -0.2158,0 -0.4315,-0.008 -0.6468,-0.0243 -1.6576,-0.1246 -2.9975,-0.6767 -4.4649,-1.3848 -0.0852,-0.0411 -0.1808,-0.0892 -0.2797,-0.1381 -0.0993,0.0489 -0.1951,0.0973 -0.2802,0.1384 -1.6779,0.8095 -3.2058,1.4088 -5.1115,1.4088 -0.2158,0 -0.4315,-0.008 -0.6468,-0.0243 -1.6576,-0.1246 -2.9975,-0.6767 -4.465,-1.3848 -0.0851,-0.0411 -0.1807,-0.0892 -0.2797,-0.1381 -0.0992,0.0489 -0.1948,0.097 -0.2799,0.1384 -1.6778,0.8092 -3.2058,1.4088 -5.1117,1.4088 -0.2158,0 -0.4315,-0.008 -0.6468,-0.0243 -1.6576,-0.1246 -2.9976,-0.6767 -4.465,-1.3848 -0.0851,-0.0411 -0.1807,-0.0892 -0.2797,-0.1381 -0.0992,0.0489 -0.1951,0.0973 -0.2802,0.1384 -1.6778,0.8095 -3.2058,1.4088 -5.1115,1.4088 -0.2157,0 -0.4315,-0.008 -0.6467,-0.0243 -1.6576,-0.1246 -2.9976,-0.6767 -4.465,-1.3848 -0.0851,-0.0411 -0.1807,-0.0892 -0.2797,-0.1381 -0.099,0.0486 -0.1943,0.097 -0.2795,0.1379 -1.678,0.8095 -3.206,1.4093 -5.1122,1.4093 -0.2157,0 -0.4315,-0.008 -0.6467,-0.0243 -1.6577,-0.1246 -2.9976,-0.6767 -4.465,-1.3848 -0.0851,-0.0411 -0.1807,-0.0892 -0.2797,-0.1381 -0.0993,0.0489 -0.1949,0.097 -0.28,0.1384 -1.6778,0.8092 -3.2058,1.4088 -5.1117,1.4088 -0.2158,0 -0.4315,-0.008 -0.6468,-0.0243 -1.6576,-0.1246 -2.9975,-0.6767 -4.4649,-1.3848 -0.0852,-0.0411 -0.1808,-0.0892 -0.2797,-0.1381 -0.0993,0.0489 -0.1951,0.0973 -0.2802,0.1384 -1.6778,0.8095 -3.2058,1.4088 -5.1115,1.4088 -0.2158,0 -0.4315,-0.008 -0.6468,-0.0243 -1.6576,-0.1246 -2.9975,-0.6767 -4.465,-1.3848 -0.0851,-0.0411 -0.1807,-0.0892 -0.2797,-0.1381 -0.099,0.0486 -0.1943,0.097 -0.2794,0.1379 -1.6781,0.8095 -3.2061,1.4093 -5.1122,1.4093 -0.2158,0 -0.4315,-0.008 -0.6468,-0.0243 -1.6579,-0.1246 -2.9978,-0.677 -4.4655,-1.385 -0.0851,-0.0409 -0.1804,-0.0893 -0.2794,-0.1379 -0.099,0.0489 -0.1946,0.097 -0.2797,0.1381 -1.6778,0.8095 -3.2058,1.4091 -5.1118,1.4091 -0.2157,0 -0.4315,-0.008 -0.6467,-0.0243 -1.6576,-0.1246 -2.9976,-0.6767 -4.465,-1.3848 -0.0851,-0.0411 -0.1807,-0.0892 -0.2797,-0.1381 -0.099,0.0486 -0.1943,0.097 -0.2795,0.1379 -1.678,0.8095 -3.206,1.4093 -5.1122,1.4093 -0.2157,0 -0.4315,-0.008 -0.6467,-0.0243 -1.6576,-0.1246 -2.9976,-0.6767 -4.465,-1.3848 -0.0851,-0.0411 -0.1807,-0.0892 -0.2797,-0.1381 -0.099,0.0486 -0.1944,0.097 -0.2795,0.1379 -1.678,0.8095 -3.206,1.4093 -5.1122,1.4093 -0.2158,0 -0.4315,-0.008 -0.6468,-0.0243 -1.6578,-0.1246 -2.9978,-0.677 -4.4654,-1.385 -0.0851,-0.0409 -0.1805,-0.0893 -0.2795,-0.1379 -0.099,0.0489 -0.1946,0.097 -0.2797,0.1381 -1.6778,0.8095 -3.2058,1.4091 -5.1117,1.4091 -0.2158,0 -0.4315,-0.008 -0.6468,-0.0243 -1.6576,-0.1246 -2.9975,-0.6767 -4.4649,-1.3848 -0.0852,-0.0411 -0.1808,-0.0892 -0.2798,-0.1381 -0.099,0.0486 -0.1943,0.097 -0.2794,0.1379 -1.6781,0.8095 -3.2061,1.4093 -5.1122,1.4093 -0.2158,0 -0.4315,-0.008 -0.6468,-0.0243 -1.6578,-0.1246 -2.9978,-0.677 -4.4655,-1.385 -0.0851,-0.0409 -0.1804,-0.0893 -0.2794,-0.1379 -0.099,0.0489 -0.1946,0.097 -0.2797,0.1381 -1.6778,0.8095 -3.2058,1.4091 -5.1118,1.4091 -0.2167,0 -0.4332,-0.008 -0.6491,-0.0246 -1.6567,-0.1248 -2.9962,-0.6769 -4.4626,-1.3845 -0.0854,-0.0411 -0.1807,-0.0892 -0.2799,-0.1381 -0.099,0.0489 -0.1946,0.097 -0.2798,0.1381 -1.6778,0.8095 -3.2057,1.4091 -5.1117,1.4091 -0.2155,0 -0.4307,-0.008 -0.6455,-0.0243 -1.6581,-0.1243 -2.9983,-0.6765 -4.4662,-1.3845 -0.0851,-0.0414 -0.1807,-0.0895 -0.28,-0.1384 -0.099,0.0489 -0.1945,0.097 -0.2797,0.1381 -1.6778,0.8095 -3.2058,1.4091 -5.1117,1.4091 -0.2157,0 -0.4315,-0.008 -0.6468,-0.0243 -1.6578,-0.1246 -2.9978,-0.677 -4.4654,-1.385 -0.0851,-0.0409 -0.1805,-0.0893 -0.2795,-0.1379 -0.099,0.0489 -0.1946,0.097 -0.2797,0.1381 -1.6778,0.8095 -3.2058,1.4091 -5.1117,1.4091 -0.2163,0 -0.4325,-0.008 -0.6482,-0.0246 -1.6567,-0.1245 -2.9964,-0.6767 -4.4633,-1.3842 -0.0851,-0.0411 -0.181,-0.0895 -0.2802,-0.1384 -0.099,0.0489 -0.1946,0.097 -0.2797,0.1381 -1.6778,0.8095 -3.2058,1.4091 -5.1117,1.4091 -0.2155,0 -0.4308,-0.008 -0.6456,-0.0243 -1.6581,-0.1243 -2.9983,-0.6765 -4.4662,-1.3845 -0.0851,-0.0414 -0.1807,-0.0895 -0.2799,-0.1384 -0.099,0.0489 -0.1946,0.097 -0.2797,0.1381 -1.6778,0.8095 -3.2058,1.4091 -5.1118,1.4091 h -5.5602 v -5.5603 c 0,-0.2157 0.008,-0.4315 0.0243,-0.6467 0.1246,-1.6576 0.6767,-2.9976 1.3847,-4.465 0.0411,-0.0851 0.0893,-0.1807 0.1382,-0.2797 z"
     style="fill:none;fill-opacity:0;stroke:#c79364;stroke-width:1.0296;stroke-linecap:butt;stroke-linejoin:miter;stroke-dasharray:none"
     id="path4" />
  <path
     d="m 320.3627,398.22 h 1.1988 c 1.1222,0 2.1445,-0.4717 3.136,-0.9503 0.0793,-0.0382 0.1579,-0.0781 0.2367,-0.117 l 1.8555,-0.9163 1.8564,0.9144 c 0.0805,0.0396 0.1602,0.0804 0.2409,0.1194 0.8925,0.4306 1.8215,0.8629 2.8232,0.938 0.1041,0.008 0.2084,0.0118 0.3127,0.0118 1.1222,0 2.1445,-0.4717 3.136,-0.9503 0.0793,-0.0382 0.1579,-0.0781 0.2367,-0.117 l 1.8555,-0.9163 1.8564,0.9144 c 0.0802,0.0396 0.1602,0.0802 0.2407,0.1191 0.8917,0.4302 1.8212,0.8628 2.822,0.938 0.1045,0.008 0.2093,0.0121 0.3141,0.0121 1.1223,0 2.1445,-0.4717 3.136,-0.9503 0.0793,-0.0382 0.1579,-0.0781 0.2367,-0.117 l 1.8531,-0.9151 1.855,0.9115 c 0.0814,0.0399 0.1621,0.081 0.2435,0.1201 0.8923,0.4304 1.8225,0.8637 2.8237,0.939 0.1043,0.008 0.2088,0.0118 0.3134,0.0118 1.1223,0 2.1445,-0.4717 3.136,-0.9503 0.0793,-0.0382 0.1579,-0.0781 0.2367,-0.117 l 1.8555,-0.9163 1.8564,0.9144 c 0.0805,0.0396 0.1602,0.0804 0.2409,0.1194 0.8925,0.4306 1.8215,0.8629 2.8232,0.938 0.1041,0.008 0.2084,0.0118 0.3127,0.0118 1.1223,0 2.1445,-0.4717 3.1361,-0.9503 0.0792,-0.0382 0.1578,-0.0781 0.2366,-0.117 l 1.8555,-0.9163 1.8564,0.9144 c 0.0802,0.0396 0.1602,0.0802 0.2407,0.1189 0.8915,0.4302 1.8208,0.863 2.8215,0.9382 0.1046,0.008 0.2096,0.0121 0.3146,0.0121 1.1223,0 2.1445,-0.4717 3.1361,-0.9503 0.0792,-0.0382 0.1578,-0.0781 0.2366,-0.117 l 1.8531,-0.9151 1.855,0.9115 c 0.0814,0.0399 0.1621,0.081 0.2435,0.1201 0.8923,0.4304 1.8225,0.8637 2.8237,0.939 0.1043,0.008 0.2088,0.0118 0.3134,0.0118 1.1225,0 2.1454,-0.4725 3.137,-0.9508 0.0816,-0.0391 0.1623,-0.0802 0.2435,-0.1201 l 1.855,-0.9115 1.8531,0.9151 c 0.0791,0.0389 0.1576,0.079 0.2369,0.1172 0.892,0.4304 1.8213,0.863 2.8225,0.9383 0.1043,0.008 0.2088,0.0118 0.3134,0.0118 1.1223,0 2.1445,-0.4717 3.1361,-0.9503 0.0792,-0.0382 0.1578,-0.0781 0.2366,-0.117 l 1.8531,-0.9151 1.855,0.9115 c 0.0814,0.0399 0.1621,0.081 0.2435,0.1201 0.8923,0.4304 1.8225,0.8637 2.8237,0.939 0.1043,0.008 0.2088,0.0118 0.3134,0.0118 1.1225,0 2.1454,-0.4725 3.137,-0.9508 0.0816,-0.0391 0.1624,-0.0802 0.2435,-0.1201 l 1.855,-0.9115 1.8531,0.9151 c 0.0791,0.0389 0.1576,0.079 0.2369,0.1172 0.892,0.4304 1.8213,0.863 2.8225,0.9383 0.1043,0.008 0.2088,0.0118 0.3134,0.0118 1.1225,0 2.1454,-0.4725 3.137,-0.9508 0.0817,-0.0391 0.1624,-0.0802 0.2435,-0.1201 l 1.855,-0.9115 1.8531,0.9151 c 0.0791,0.0389 0.1576,0.079 0.2369,0.1172 0.892,0.4304 1.8213,0.863 2.8225,0.9383 0.1043,0.008 0.2088,0.0118 0.3134,0.0118 1.1223,0 2.1445,-0.4717 3.1361,-0.9503 0.0792,-0.0382 0.1578,-0.0781 0.2366,-0.117 l 1.8531,-0.9151 1.855,0.9115 c 0.0814,0.0399 0.1621,0.081 0.2436,0.1201 0.8922,0.4304 1.8224,0.8637 2.8236,0.939 0.1043,0.008 0.2088,0.0118 0.3134,0.0118 1.1225,0 2.1454,-0.4725 3.137,-0.9508 0.0817,-0.0391 0.1624,-0.0802 0.2435,-0.1201 l 1.855,-0.9115 1.8531,0.9151 c 0.0791,0.0389 0.1576,0.079 0.2369,0.1172 0.892,0.4304 1.8213,0.863 2.8225,0.9383 0.1043,0.008 0.2088,0.0118 0.3134,0.0118 1.1223,0 2.1443,-0.4715 3.1358,-0.9501 0.0805,-0.0387 0.1605,-0.0795 0.241,-0.1191 l 1.8564,-0.9144 1.8554,0.9163 c 0.0791,0.0389 0.1576,0.079 0.2369,0.1172 0.892,0.4304 1.8213,0.863 2.8225,0.9383 0.1043,0.008 0.2088,0.0118 0.3134,0.0118 1.1225,0 2.1443,-0.4715 3.1361,-0.9501 0.0804,-0.0387 0.1602,-0.0795 0.2407,-0.1191 l 1.8564,-0.9144 1.8554,0.9163 c 0.0791,0.0389 0.1577,0.079 0.2369,0.1172 0.892,0.4304 1.8213,0.863 2.8225,0.9383 0.1043,0.008 0.2089,0.0118 0.3134,0.0118 1.1225,0 2.1455,-0.4725 3.137,-0.9508 0.0817,-0.0391 0.1624,-0.0802 0.2435,-0.1201 l 1.855,-0.9115 1.8531,0.9151 c 0.0791,0.0389 0.1577,0.079 0.2369,0.1172 0.892,0.4304 1.8213,0.863 2.8225,0.9383 0.1043,0.008 0.2089,0.0118 0.3134,0.0118 1.1223,0 2.1443,-0.4715 3.1358,-0.9501 0.0805,-0.0387 0.1605,-0.0795 0.241,-0.1191 l 1.8564,-0.9144 1.8554,0.9163 c 0.0791,0.0389 0.1577,0.079 0.2369,0.1172 0.892,0.4304 1.8213,0.863 2.8225,0.9383 0.1043,0.008 0.2089,0.0118 0.3134,0.0118 1.1225,0 2.1443,-0.4715 3.1361,-0.9501 0.0804,-0.0387 0.1602,-0.0795 0.2407,-0.1191 l 1.8564,-0.9144 1.8554,0.9163 c 0.0791,0.0389 0.1577,0.079 0.2369,0.1172 0.892,0.4304 1.8213,0.863 2.8225,0.9383 0.1043,0.008 0.2089,0.0118 0.3134,0.0118 1.1223,0 2.1443,-0.4715 3.1358,-0.9501 0.0805,-0.0387 0.1605,-0.0795 0.241,-0.1191 l 1.8564,-0.9144 1.8554,0.9163 c 0.0791,0.0389 0.1577,0.079 0.2369,0.1172 0.892,0.4304 1.8213,0.863 2.8225,0.9383 0.1043,0.008 0.2089,0.0118 0.3134,0.0118 1.1223,0 2.1443,-0.4715 3.1358,-0.9501 0.0805,-0.0387 0.1605,-0.0795 0.241,-0.1191 l 1.854,-0.9135 1.8541,0.9135 c 0.0802,0.0396 0.1602,0.0802 0.2406,0.1191 0.8918,0.4302 1.8213,0.8628 2.8221,0.938 0.1045,0.008 0.2093,0.0121 0.314,0.0121 h 1.1988 v -1.1988 c 0,-1.1223 -0.4715,-2.1443 -0.9501,-3.1358 -0.0387,-0.0805 -0.0795,-0.1605 -0.1191,-0.241 l -0.9135,-1.854 0.9135,-1.854 c 0.0396,-0.0803 0.0802,-0.1603 0.1191,-0.2407 0.4302,-0.8918 0.8628,-1.8213 0.938,-2.822 0.008,-0.1046 0.0121,-0.2093 0.0121,-0.3141 0,-1.1223 -0.4717,-2.1445 -0.9503,-3.1361 -0.0382,-0.0793 -0.0781,-0.1579 -0.117,-0.2367 l -0.9163,-1.8554 0.9144,-1.8564 c 0.0396,-0.0803 0.0802,-0.1603 0.1191,-0.2407 0.4302,-0.8918 0.8628,-1.8213 0.938,-2.822 0.008,-0.1046 0.0121,-0.2093 0.0121,-0.3141 0,-1.1223 -0.4717,-2.1445 -0.9503,-3.1361 -0.0382,-0.0793 -0.0781,-0.1579 -0.117,-0.2367 l -0.9163,-1.8554 0.9144,-1.8564 c 0.0396,-0.0805 0.0804,-0.1603 0.1194,-0.241 0.4306,-0.8924 0.8629,-1.8215 0.938,-2.8232 0.008,-0.104 0.0118,-0.2083 0.0118,-0.3126 0,-1.1223 -0.4717,-2.1445 -0.9503,-3.1361 -0.0382,-0.0793 -0.0781,-0.1579 -0.117,-0.2367 l -0.9163,-1.8554 0.9144,-1.8564 c 0.0396,-0.0803 0.0802,-0.1603 0.1191,-0.2407 0.4302,-0.8918 0.8628,-1.8213 0.938,-2.822 0.008,-0.1046 0.0121,-0.2094 0.0121,-0.3141 0,-1.1223 -0.4717,-2.1446 -0.9503,-3.1361 -0.0382,-0.0793 -0.0781,-0.1579 -0.117,-0.2367 l -0.9151,-1.8531 0.9115,-1.855 c 0.0399,-0.0814 0.081,-0.1621 0.1201,-0.2435 0.4305,-0.8922 0.8637,-1.8224 0.939,-2.8237 0.008,-0.1043 0.0118,-0.2088 0.0118,-0.3133 0,-1.1223 -0.4717,-2.1446 -0.9503,-3.1361 -0.0382,-0.0793 -0.0781,-0.1579 -0.117,-0.2367 l -0.9163,-1.8555 0.9144,-1.8564 c 0.0396,-0.0804 0.0804,-0.1602 0.1194,-0.2409 0.4306,-0.8924 0.8629,-1.8215 0.938,-2.8232 0.008,-0.104 0.0118,-0.2083 0.0118,-0.3126 0,-1.1223 -0.4717,-2.1446 -0.9503,-3.1361 -0.0382,-0.0793 -0.0781,-0.1579 -0.117,-0.2367 l -0.9163,-1.8555 0.9144,-1.8564 c 0.0396,-0.0802 0.0802,-0.1602 0.1189,-0.2406 0.4302,-0.8916 0.863,-1.8208 0.9382,-2.8216 0.008,-0.1045 0.0121,-0.2095 0.0121,-0.3145 0,-1.1223 -0.4717,-2.1446 -0.9503,-3.1361 -0.0382,-0.0793 -0.0781,-0.1579 -0.117,-0.2367 l -0.9151,-1.8531 0.9115,-1.855 c 0.0399,-0.0814 0.081,-0.1621 0.1201,-0.2435 0.4305,-0.8922 0.8637,-1.8224 0.939,-2.8237 0.008,-0.1043 0.0118,-0.2088 0.0118,-0.3133 0,-1.1226 -0.4724,-2.1455 -0.9508,-3.1371 -0.0391,-0.0816 -0.0802,-0.1623 -0.1201,-0.2435 l -0.9115,-1.855 0.9151,-1.8531 c 0.0389,-0.079 0.079,-0.1576 0.1172,-0.2369 0.4305,-0.892 0.863,-1.8212 0.9383,-2.8225 0.008,-0.1043 0.0118,-0.2088 0.0118,-0.3133 0,-1.1223 -0.4717,-2.1446 -0.9503,-3.1361 -0.0382,-0.0793 -0.0781,-0.1579 -0.117,-0.2367 l -0.9151,-1.8531 0.9115,-1.855 c 0.0399,-0.0814 0.081,-0.1621 0.1201,-0.2435 0.4305,-0.8922 0.8637,-1.8224 0.939,-2.8237 0.008,-0.1043 0.0118,-0.2088 0.0118,-0.3133 0,-1.1226 -0.4724,-2.1455 -0.9508,-3.1371 -0.0391,-0.0816 -0.0802,-0.1623 -0.1201,-0.2435 l -0.9115,-1.855 0.9151,-1.8531 c 0.0389,-0.079 0.079,-0.1576 0.1172,-0.2369 0.4305,-0.892 0.863,-1.8212 0.9383,-2.8225 0.008,-0.1043 0.0118,-0.2088 0.0118,-0.3133 0,-1.1226 -0.4724,-2.1455 -0.9508,-3.1371 -0.0391,-0.0816 -0.0802,-0.1623 -0.1201,-0.2435 l -0.9115,-1.855 0.9151,-1.8531 c 0.0389,-0.079 0.079,-0.1576 0.1172,-0.2369 0.4305,-0.892 0.863,-1.8212 0.9383,-2.8225 0.008,-0.1043 0.0118,-0.2088 0.0118,-0.3133 0,-1.1223 -0.4717,-2.1446 -0.9503,-3.1361 -0.0382,-0.0793 -0.0781,-0.1579 -0.117,-0.2367 l -0.9151,-1.8531 0.9115,-1.855 c 0.0399,-0.0814 0.081,-0.1621 0.1201,-0.2435 0.4305,-0.8922 0.8637,-1.8224 0.939,-2.8237 0.008,-0.1043 0.0118,-0.2088 0.0118,-0.3133 0,-1.1226 -0.4724,-2.1455 -0.9508,-3.1371 -0.0391,-0.0816 -0.0802,-0.1623 -0.1201,-0.2435 l -0.9115,-1.855 0.9151,-1.8531 c 0.0389,-0.079 0.079,-0.1576 0.1172,-0.2369 0.4305,-0.892 0.863,-1.8212 0.9383,-2.8225 0.008,-0.1043 0.0118,-0.2088 0.0118,-0.3133 0,-1.1223 -0.4715,-2.1443 -0.9501,-3.1359 -0.0387,-0.0805 -0.0795,-0.1605 -0.1191,-0.2409 l -0.9144,-1.8564 0.9163,-1.8555 c 0.0389,-0.079 0.079,-0.1576 0.1172,-0.2369 0.4305,-0.892 0.863,-1.8212 0.9383,-2.8225 0.008,-0.1043 0.0118,-0.2088 0.0118,-0.3133 0,-1.1226 -0.4715,-2.1443 -0.9501,-3.1361 -0.0387,-0.0805 -0.0795,-0.1603 -0.1191,-0.2407 l -0.9144,-1.8564 0.9163,-1.8555 c 0.0389,-0.079 0.079,-0.1576 0.1172,-0.2369 0.4305,-0.892 0.863,-1.8212 0.9383,-2.8225 0.008,-0.1043 0.0118,-0.2088 0.0118,-0.3133 0,-1.1226 -0.4724,-2.1455 -0.9508,-3.1371 -0.0391,-0.0816 -0.0802,-0.1623 -0.1201,-0.2435 l -0.9115,-1.855 0.9151,-1.8531 c 0.0389,-0.079 0.079,-0.1576 0.1172,-0.2369 0.4305,-0.892 0.863,-1.8212 0.9383,-2.8225 0.008,-0.1043 0.0118,-0.2088 0.0118,-0.3134 0,-1.1222 -0.4715,-2.1442 -0.9501,-3.1358 -0.0387,-0.0805 -0.0795,-0.1605 -0.1191,-0.2409 l -0.9144,-1.8564 0.9163,-1.8555 c 0.0389,-0.079 0.079,-0.1576 0.1172,-0.2369 0.4305,-0.892 0.863,-1.8212 0.9383,-2.8225 0.008,-0.1043 0.0118,-0.2088 0.0118,-0.3134 0,-1.1225 -0.4715,-2.1442 -0.9501,-3.136 -0.0387,-0.0805 -0.0795,-0.1603 -0.1191,-0.2407 l -0.9144,-1.8564 0.9163,-1.8555 c 0.0389,-0.079 0.079,-0.1576 0.1172,-0.2369 0.4305,-0.892 0.863,-1.8212 0.9383,-2.8225 0.008,-0.1043 0.0118,-0.2088 0.0118,-0.3134 v -1.1987 h -1.1988 c -1.1223,0 -2.1445,0.4717 -3.1361,0.9503 -0.0792,0.0382 -0.1578,0.0781 -0.2366,0.117 l -1.8555,0.9163 -1.8564,-0.9144 c -0.0805,-0.0396 -0.1602,-0.0805 -0.2409,-0.1194 -0.8925,-0.4307 -1.8215,-0.863 -2.8232,-0.938 -0.1041,-0.008 -0.2084,-0.0118 -0.3127,-0.0118 -1.1223,0 -2.1445,0.4717 -3.1361,0.9503 -0.0792,0.0382 -0.1578,0.0781 -0.2366,0.117 l -1.8555,0.9163 -1.8564,-0.9144 c -0.0802,-0.0396 -0.1602,-0.0802 -0.2407,-0.1192 -0.8917,-0.4301 -1.8212,-0.8627 -2.822,-0.938 -0.1045,-0.008 -0.2093,-0.012 -0.3141,-0.012 -1.1223,0 -2.1445,0.4717 -3.1361,0.9503 -0.0792,0.0382 -0.1578,0.0781 -0.2366,0.117 l -1.8531,0.9151 -1.855,-0.9116 c -0.0814,-0.0398 -0.1621,-0.0809 -0.2435,-0.1201 -0.8923,-0.4304 -1.8225,-0.8636 -2.8237,-0.9389 -0.1043,-0.008 -0.2088,-0.0118 -0.3134,-0.0118 -1.1223,0 -2.1445,0.4717 -3.1361,0.9503 -0.0792,0.0382 -0.1578,0.0781 -0.2366,0.117 l -1.8555,0.9163 -1.8564,-0.9144 c -0.0805,-0.0396 -0.1602,-0.0805 -0.2409,-0.1194 -0.8925,-0.4307 -1.8215,-0.863 -2.8232,-0.938 -0.1041,-0.008 -0.2084,-0.0118 -0.3127,-0.0118 -1.1223,0 -2.1445,0.4717 -3.1361,0.9503 -0.0792,0.0382 -0.1578,0.0781 -0.2366,0.117 l -1.8555,0.9163 -1.8564,-0.9144 c -0.0802,-0.0396 -0.1602,-0.0802 -0.2407,-0.1189 -0.8915,-0.4302 -1.8208,-0.863 -2.8215,-0.9383 -0.1046,-0.008 -0.2096,-0.012 -0.3146,-0.012 -1.1223,0 -2.1445,0.4717 -3.1361,0.9503 -0.0792,0.0382 -0.1578,0.0781 -0.2366,0.117 l -1.8531,0.9151 -1.855,-0.9116 c -0.0814,-0.0398 -0.1621,-0.0809 -0.2436,-0.1201 -0.8922,-0.4304 -1.8224,-0.8636 -2.8236,-0.9389 -0.1043,-0.008 -0.2088,-0.0118 -0.3134,-0.0118 -1.1225,0 -2.1454,0.4724 -3.137,0.9507 -0.0817,0.0392 -0.1624,0.0803 -0.2435,0.1201 l -1.855,0.9116 -1.8531,-0.9151 c -0.0791,-0.0389 -0.1576,-0.079 -0.2369,-0.1173 -0.892,-0.4304 -1.8213,-0.8629 -2.8225,-0.9382 -0.1043,-0.008 -0.2088,-0.0118 -0.3134,-0.0118 -1.1223,0 -2.1445,0.4717 -3.1361,0.9503 -0.0793,0.0382 -0.1578,0.0781 -0.2366,0.117 l -1.8531,0.9151 -1.855,-0.9116 c -0.0814,-0.0398 -0.1621,-0.0809 -0.2436,-0.1201 -0.8922,-0.4304 -1.8224,-0.8636 -2.8236,-0.9389 -0.1043,-0.008 -0.2088,-0.0118 -0.3134,-0.0118 -1.1225,0 -2.1455,0.4724 -3.137,0.9507 -0.0817,0.0392 -0.1624,0.0803 -0.2435,0.1201 l -1.855,0.9116 -1.8531,-0.9151 c -0.0791,-0.0389 -0.1577,-0.079 -0.2369,-0.1173 -0.892,-0.4304 -1.8213,-0.8629 -2.8225,-0.9382 -0.1043,-0.008 -0.2088,-0.0118 -0.3134,-0.0118 -1.1225,0 -2.1455,0.4724 -3.137,0.9507 -0.0817,0.0392 -0.1624,0.0803 -0.2435,0.1201 l -1.855,0.9116 -1.8531,-0.9151 c -0.0791,-0.0389 -0.1577,-0.079 -0.2369,-0.1173 -0.892,-0.4304 -1.8213,-0.8629 -2.8225,-0.9382 -0.1043,-0.008 -0.2089,-0.0118 -0.3134,-0.0118 -1.1223,0 -2.1445,0.4717 -3.1361,0.9503 -0.0793,0.0382 -0.1578,0.0781 -0.2367,0.117 l -1.8531,0.9151 -1.8549,-0.9116 c -0.0814,-0.0398 -0.1622,-0.0809 -0.2436,-0.1201 -0.8922,-0.4304 -1.8224,-0.8636 -2.8236,-0.9389 -0.1043,-0.008 -0.2089,-0.0118 -0.3134,-0.0118 -1.1225,0 -2.1455,0.4724 -3.137,0.9507 -0.0817,0.0392 -0.1624,0.0803 -0.2435,0.1201 l -1.855,0.9116 -1.8531,-0.9151 c -0.0791,-0.0389 -0.1577,-0.079 -0.2369,-0.1173 -0.892,-0.4304 -1.8213,-0.8629 -2.8225,-0.9382 -0.1043,-0.008 -0.2089,-0.0118 -0.3134,-0.0118 -1.1223,0 -2.1443,0.4715 -3.1358,0.95 -0.0805,0.0387 -0.1605,0.0796 -0.241,0.1192 l -1.8564,0.9144 -1.8554,-0.9163 c -0.0791,-0.0389 -0.1577,-0.079 -0.2369,-0.1173 -0.892,-0.4304 -1.8213,-0.8629 -2.8225,-0.9382 -0.1043,-0.008 -0.2089,-0.0118 -0.3134,-0.0118 -1.1225,0 -2.1443,0.4715 -3.1361,0.95 -0.0804,0.0387 -0.1602,0.0796 -0.2407,0.1192 l -1.8564,0.9144 -1.8554,-0.9163 c -0.0791,-0.0389 -0.1577,-0.079 -0.2369,-0.1173 -0.892,-0.4304 -1.8213,-0.8629 -2.8225,-0.9382 -0.1043,-0.008 -0.2089,-0.0118 -0.3134,-0.0118 -1.1225,0 -2.1455,0.4724 -3.137,0.9507 -0.0817,0.0392 -0.1624,0.0803 -0.2435,0.1201 l -1.855,0.9116 -1.8531,-0.9151 c -0.0791,-0.0389 -0.1577,-0.079 -0.2369,-0.1173 -0.892,-0.4304 -1.8213,-0.8629 -2.8225,-0.9382 -0.1043,-0.008 -0.2089,-0.0118 -0.3134,-0.0118 -1.1223,0 -2.1443,0.4715 -3.1358,0.95 -0.0805,0.0387 -0.1605,0.0796 -0.241,0.1192 l -1.8564,0.9144 -1.8554,-0.9163 c -0.0791,-0.0389 -0.1577,-0.079 -0.237,-0.1173 -0.8919,-0.4304 -1.8212,-0.8629 -2.8224,-0.9382 -0.1043,-0.008 -0.2089,-0.0118 -0.3134,-0.0118 -1.1225,0 -2.1443,0.4715 -3.1361,0.95 -0.0805,0.0387 -0.1602,0.0796 -0.2407,0.1192 l -1.8564,0.9144 -1.8554,-0.9163 c -0.0791,-0.0389 -0.1577,-0.079 -0.237,-0.1173 -0.8919,-0.4304 -1.8212,-0.8629 -2.8224,-0.9382 -0.1043,-0.008 -0.2089,-0.0118 -0.3134,-0.0118 -1.1223,0 -2.1443,0.4715 -3.1359,0.95 -0.0804,0.0387 -0.1604,0.0796 -0.2409,0.1192 l -1.8564,0.9144 -1.8554,-0.9163 c -0.0791,-0.0389 -0.1577,-0.079 -0.237,-0.1173 -0.8919,-0.4304 -1.8212,-0.8629 -2.8224,-0.9382 -0.1043,-0.008 -0.2089,-0.0118 -0.3134,-0.0118 -1.1223,0 -2.1443,0.4715 -3.1359,0.95 -0.0804,0.0387 -0.1604,0.0796 -0.2409,0.1192 l -1.854,0.9134 -1.8541,-0.9134 c -0.0802,-0.0396 -0.1602,-0.0802 -0.2407,-0.1192 -0.8917,-0.4301 -1.8212,-0.8627 -2.822,-0.938 -0.1045,-0.008 -0.2093,-0.012 -0.314,-0.012 h -1.1988 v 1.1987 c 0,1.1223 0.4715,2.1443 0.95,3.1359 0.0387,0.0805 0.0796,0.1605 0.1192,0.2409 l 0.9135,1.8541 -0.9135,1.854 c -0.0396,0.0802 -0.0802,0.1602 -0.1192,0.2407 -0.4301,0.8917 -0.8627,1.8212 -0.938,2.822 -0.008,0.1045 -0.012,0.2093 -0.012,0.3141 0,1.1223 0.4717,2.1445 0.9503,3.1361 0.0382,0.0793 0.0781,0.1578 0.117,0.2366 l 0.9163,1.8555 -0.9144,1.8564 c -0.0396,0.0802 -0.0802,0.1602 -0.1192,0.2407 -0.4301,0.8917 -0.8627,1.8212 -0.938,2.822 -0.008,0.1045 -0.012,0.2093 -0.012,0.3141 0,1.1223 0.4717,2.1445 0.9503,3.1361 0.0382,0.0793 0.0781,0.1578 0.117,0.2367 l 0.9163,1.8554 -0.9144,1.8564 c -0.0396,0.0805 -0.0805,0.1602 -0.1194,0.2409 -0.4306,0.8925 -0.8629,1.8215 -0.938,2.8232 -0.008,0.1041 -0.0118,0.2084 -0.0118,0.3127 0,1.1223 0.4717,2.1445 0.9503,3.1361 0.0382,0.0793 0.0781,0.1578 0.117,0.2367 l 0.9163,1.8554 -0.9144,1.8564 c -0.0396,0.0802 -0.0802,0.1602 -0.1192,0.2407 -0.4301,0.8917 -0.8627,1.8212 -0.938,2.822 -0.008,0.1045 -0.012,0.2093 -0.012,0.3141 0,1.1223 0.4717,2.1445 0.9503,3.1361 0.0382,0.0793 0.0781,0.1578 0.117,0.2367 l 0.9151,1.8531 -0.9115,1.8549 c -0.0399,0.0814 -0.081,0.1622 -0.1201,0.2436 -0.4305,0.8922 -0.8637,1.8224 -0.939,2.8236 -0.008,0.1043 -0.0118,0.2089 -0.0118,0.3134 0,1.1223 0.4717,2.1445 0.9503,3.1361 0.0382,0.0793 0.0781,0.1578 0.117,0.2367 l 0.9163,1.8554 -0.9144,1.8564 c -0.0396,0.0805 -0.0805,0.1602 -0.1194,0.2409 -0.4306,0.8925 -0.8629,1.8215 -0.938,2.8232 -0.008,0.1041 -0.0118,0.2084 -0.0118,0.3127 0,1.1223 0.4717,2.1445 0.9503,3.1361 0.0382,0.0793 0.0781,0.1578 0.117,0.2367 l 0.9163,1.8554 -0.9144,1.8564 c -0.0396,0.0802 -0.0802,0.1602 -0.1189,0.2407 -0.4302,0.8915 -0.863,1.8208 -0.9383,2.8215 -0.008,0.1046 -0.012,0.2096 -0.012,0.3146 0,1.1223 0.4717,2.1445 0.9503,3.1361 0.0382,0.0793 0.0781,0.1578 0.117,0.2367 l 0.9151,1.8531 -0.9115,1.8549 c -0.0399,0.0815 -0.081,0.1622 -0.1201,0.2436 -0.4305,0.8922 -0.8637,1.8224 -0.939,2.8236 -0.008,0.1043 -0.0118,0.2089 -0.0118,0.3134 0,1.1225 0.4724,2.1455 0.9508,3.137 0.0391,0.0817 0.0802,0.1624 0.1201,0.2435 l 0.9115,1.855 -0.9151,1.8531 c -0.0389,0.0791 -0.079,0.1577 -0.1173,0.237 -0.4304,0.8919 -0.8629,1.8212 -0.9382,2.8224 -0.008,0.1043 -0.0118,0.2089 -0.0118,0.3134 0,1.1223 0.4717,2.1445 0.9503,3.1361 0.0382,0.0793 0.0781,0.1578 0.117,0.2367 l 0.9151,1.8531 -0.9115,1.8549 c -0.0399,0.0815 -0.081,0.1622 -0.1201,0.2436 -0.4305,0.8922 -0.8637,1.8224 -0.939,2.8236 -0.008,0.1043 -0.0118,0.2089 -0.0118,0.3134 0,1.1225 0.4724,2.1455 0.9508,3.137 0.0391,0.0817 0.0802,0.1624 0.1201,0.2436 l 0.9115,1.8549 -0.9151,1.8531 c -0.0389,0.0791 -0.079,0.1577 -0.1173,0.237 -0.4304,0.8919 -0.8629,1.8212 -0.9382,2.8224 -0.008,0.1043 -0.0118,0.2089 -0.0118,0.3134 0,1.1225 0.4724,2.1455 0.9508,3.137 0.0391,0.0817 0.0802,0.1624 0.1201,0.2436 l 0.9115,1.8549 -0.9151,1.8531 c -0.0389,0.0791 -0.079,0.1577 -0.1173,0.237 -0.4304,0.8919 -0.8629,1.8212 -0.9382,2.8224 -0.008,0.1043 -0.0118,0.2089 -0.0118,0.3134 0,1.1223 0.4717,2.1445 0.9503,3.1361 0.0382,0.0793 0.0781,0.1579 0.117,0.2367 l 0.9151,1.8531 -0.9115,1.855 c -0.0399,0.0814 -0.081,0.1621 -0.1201,0.2435 -0.4305,0.8922 -0.8637,1.8224 -0.939,2.8236 -0.008,0.1043 -0.0118,0.2089 -0.0118,0.3134 0,1.1225 0.4724,2.1455 0.9508,3.137 0.0391,0.0817 0.0802,0.1624 0.1201,0.2436 l 0.9115,1.8549 -0.9151,1.8531 c -0.0389,0.0791 -0.079,0.1577 -0.1173,0.237 -0.4304,0.8919 -0.8629,1.8212 -0.9382,2.8224 -0.008,0.1043 -0.0118,0.2089 -0.0118,0.3134 0,1.1223 0.4715,2.1443 0.95,3.1359 0.0387,0.0804 0.0796,0.1604 0.1192,0.2409 l 0.9144,1.8564 -0.9163,1.8554 c -0.0389,0.0791 -0.079,0.1577 -0.1173,0.237 -0.4304,0.8919 -0.8629,1.8212 -0.9382,2.8224 -0.008,0.1043 -0.0118,0.2089 -0.0118,0.3134 0,1.1225 0.4715,2.1443 0.95,3.1361 0.0387,0.0805 0.0796,0.1602 0.1192,0.2407 l 0.9144,1.8564 -0.9163,1.8554 c -0.0389,0.0791 -0.079,0.1577 -0.1173,0.237 -0.4304,0.8919 -0.8629,1.8212 -0.9382,2.8224 -0.008,0.1043 -0.0118,0.2089 -0.0118,0.3134 0,1.1225 0.4724,2.1455 0.9508,3.137 0.0391,0.0817 0.0802,0.1624 0.1201,0.2436 l 0.9115,1.855 -0.9151,1.853 c -0.0389,0.0791 -0.079,0.1577 -0.1173,0.237 -0.4304,0.8919 -0.8629,1.8212 -0.9382,2.8224 -0.008,0.1043 -0.0118,0.2089 -0.0118,0.3134 0,1.1223 0.4715,2.1443 0.95,3.1359 0.0387,0.0804 0.0796,0.1604 0.1192,0.2409 l 0.9144,1.8564 -0.9163,1.8555 c -0.0389,0.079 -0.079,0.1576 -0.1173,0.2369 -0.4304,0.8919 -0.8629,1.8212 -0.9382,2.8224 -0.008,0.1043 -0.0118,0.2089 -0.0118,0.3134 0,1.1225 0.4715,2.1443 0.95,3.1361 0.0387,0.0805 0.0796,0.1602 0.1192,0.2407 l 0.9144,1.8564 -0.9163,1.8555 c -0.0389,0.079 -0.079,0.1576 -0.1173,0.2369 -0.4304,0.8919 -0.8629,1.8212 -0.9382,2.8224 -0.008,0.1043 -0.0118,0.2089 -0.0118,0.3134 z"
     style="fill:none;stroke:#c79364;stroke-width:1.5982;stroke-linecap:butt;stroke-linejoin:miter;stroke-dasharray:none"
     id="path6" />
  <g
     id="Layer1000"
     transform="translate(123.3071,-123.3071)">
    <path
       d="m 287.5193,397.7224 c 0.8569,2.0671 2.3139,3.8267 4.1488,5.0566 1.7729,1.1883 3.9076,1.8833 6.2024,1.8833 h 8.0704 c -0.4826,-1.762 -1.6621,-3.2222 -3.2383,-4.511 -2.3447,-1.9164 -5.5528,-3.4897 -8.7603,-5.0627 l 1.5835,-3.238 c 3.4202,1.6773 6.8412,3.355 9.4673,5.5015 2.8839,2.3575 4.807,5.2273 4.807,9.12 v 1.8097 h -1.8098 -10.1198 c -3.0253,0 -5.8518,-0.9248 -8.2101,-2.5053 -2.4257,-1.6262 -4.3496,-3.9463 -5.478,-6.6683 z"
       style="fill:#c79364;fill-rule:evenodd"
       id="path8" />
    <path
       d="m 283.7396,397.7756 c -2.9956,-9.4855 4.1612,-19.2382 14.1301,-19.2382 2.7169,0 11.9296,0.4903 11.9296,-2.9411 v 0 c 0,6.1219 0.1571,9.311 -5.2185,13.64 -5.6549,4.5534 -15.1358,7.3321 -19.2671,12.0883 z m 3.1132,-2.4406 c 5.9865,-4.0137 17.4367,-7.6608 19.0926,-13.8335 0.011,-0.0409 0.0224,-0.1304 0.0342,-0.2587 -5.2629,2.3135 -10.5639,-1.2446 -16.013,4.204 -2.5502,2.5499 -3.7764,6.2082 -3.1138,9.8882 z"
       style="fill:#c79364;fill-rule:evenodd"
       id="path10" />
    <path
       d="m 279.6672,406.3521 c 0,-3.0095 1.1765,-5.4625 3.0699,-7.5633 1.7553,-1.9476 4.1219,-3.5567 6.7071,-5.0258 l 1.7817,3.1386 c -2.2824,1.297 -4.3458,2.6891 -5.8023,4.3049 -1.3179,1.4622 -2.1369,3.1367 -2.1369,5.1456 v 1.9297 l -3.6195,2.4484 z"
       style="fill:#c79364;fill-rule:evenodd"
       id="path12" />
  </g>
  <text
     x="350.86511"
     y="328.07141"
     id="text17"><tspan
       font-family="'Swis721 BT'"
       font-size="32px"
       fill="#c79364"
       id="tspan15">KASHVI</tspan></text>
  <text
     x="342.14169"
     y="350.12289"
     id="text21"><tspan
       font-family="'Swis721 Lt BT'"
       font-size="16px"
       fill="#c79364"
       id="tspan19">CREATION</tspan></text>
</svg>
